#!OML:ASF H:\Pregnant\Project 1\Capture day 1\Session 1\femalepreg.ASF
:FULLY-SPECIFIED
:DEGREES
1788
root 5.62414 15.6793 26.7376 539.264 -83.7949 -524.369
lowerback -20.9818 1.00865 0.20843
upperback -2.53074 1.02476 0.577967
thorax 8.97329 0.401917 0.787629
lowerneck -17.4111 15.673 16.9832
upperneck 22.2972 22.9549 -19.7956
head 15.3332 9.21803 -5.92872
rclavicle -5.18075e-015 -8.21229e-015
rhumerus -95.3017 42.9013 -122.419
rradius 116.762
rwrist -90.0576
rhand -37.9114 -84.4749
rfingers 7.12502
rthumb -10.9539 -245.831
lclavicle -5.18075e-015 -8.21229e-015
lhumerus -98.6769 -43.8889 126.451
lradius 116.078
lwrist 108.448
lhand -58.5497 73.9943
lfingers 7.12502
lthumb -30.7701 -461.439
rfemur -20.306 23.0856 12.7954
rtibia 24.4965
rfoot -14.4474 -24.6248
rtoes -12.2947
lfemur -9.74678 -12.6373 -12.555
ltibia 1.35174e-014
lfoot -1.72485 16.8324
ltoes -14.8917
1789
root 5.62516 15.6799 26.7374 539.252 -83.7895 -524.334
lowerback -20.9878 1.02014 0.225032
upperback -2.52013 1.03765 0.566814
thorax 8.98865 0.409009 0.769879
lowerneck -17.5983 15.5758 16.8215
upperneck 22.3429 22.813 -19.724
head 15.3225 9.13797 -5.90685
rclavicle -9.37108e-015 2.48481e-015
rhumerus -95.273 42.8907 -122.415
rradius 116.78
rwrist -90.0613
rhand -37.9133 -84.5018
rfingers 7.12502
rthumb -10.9557 -245.804
lclavicle -9.37108e-015 2.48481e-015
lhumerus -98.7125 -43.9541 126.502
lradius 116.09
lwrist 108.441
lhand -58.5458 74.0434
lfingers 7.12502
lthumb -30.7664 -461.489
rfemur -20.3331 23.145 12.7818
rtibia 24.484
rfoot -14.426 -24.6764
rtoes -12.2762
lfemur -9.77523 -12.6277 -12.5424
ltibia -5.56597e-015
lfoot -1.71427 16.8331
ltoes -14.8977
1790
root 5.62627 15.6806 26.7373 539.248 -83.7851 -524.308
lowerback -20.9931 1.02692 0.235512
upperback -2.5087 1.04542 0.559277
thorax 9.00445 0.413399 0.758136
lowerneck -17.7825 15.4797 16.6657
upperneck 22.3771 22.6741 -19.6648
head 15.3104 9.059 -5.88979
rclavicle -1.65299e-014 -5.59082e-016
rhumerus -95.2496 42.8906 -122.416
rradius 116.797
rwrist -90.0612
rhand -37.9128 -84.5332
rfingers 7.12502
rthumb -10.9551 -245.773
lclavicle -1.65299e-014 -5.59082e-016
lhumerus -98.738 -44.0083 126.545
lradius 116.102
lwrist 108.429
lhand -58.5432 74.0924
lfingers 7.12502
lthumb -30.7639 -461.539
rfemur -20.3613 23.1948 12.7671
rtibia 24.4727
rfoot -14.4086 -24.7179
rtoes -12.2517
lfemur -9.80349 -12.6191 -12.531
ltibia -7.95139e-016
lfoot -1.70841 16.8334
ltoes -14.8772
1791
root 5.62747 15.6813 26.7372 539.263 -83.7813 -524.302
lowerback -20.9979 1.02351 0.237999
upperback -2.49557 1.04109 0.557778
thorax 9.02163 0.411647 0.754151
lowerneck -17.9526 15.3895 16.5267
upperneck 22.3919 22.5456 -19.6293
head 15.2966 8.985 -5.88206
rclavicle -1.14549e-014 -4.73356e-015
rhumerus -95.2428 42.917 -122.433
rradius 116.811
rwrist -90.0601
rhand -37.9083 -84.5577
rfingers 7.12502
rthumb -10.9508 -245.748
lclavicle -1.14549e-014 -4.73356e-015
lhumerus -98.7406 -44.0374 126.566
lradius 116.11
lwrist 108.413
lhand -58.5476 74.1752
lfingers 7.12502
lthumb -30.7681 -461.621
rfemur -20.3885 23.2501 12.7486
rtibia 24.4627
rfoot -14.3967 -24.7619
rtoes -12.2174
lfemur -9.82955 -12.6115 -12.5228
ltibia 3.97569e-015
lfoot -1.70299 16.833
ltoes -14.8598
1792
root 5.62874 15.6819 26.7372 539.29 -83.777 -524.31
lowerback -21.0003 1.01427 0.232489
upperback -2.48079 1.03019 0.56478
thorax 9.03914 0.406348 0.762142
lowerneck -18.1165 15.3006 16.3774
upperneck 22.3961 22.4234 -19.6005
head 15.2782 8.91271 -5.87358
rclavicle 2.97213e-014 1.04983e-015
rhumerus -95.247 42.9616 -122.452
rradius 116.825
rwrist -90.0583
rhand -37.9025 -84.5832
rfingers 7.12502
rthumb -10.9453 -245.722
lclavicle 2.97213e-014 1.04983e-015
lhumerus -98.7296 -44.0498 126.584
lradius 116.115
lwrist 108.393
lhand -58.5521 74.277
lfingers 7.12502
lthumb -30.7724 -461.722
rfemur -20.4141 23.264 12.7345
rtibia 24.4547
rfoot -14.3875 -24.7663
rtoes -12.2004
lfemur -9.85231 -12.6039 -12.5172
ltibia 3.33958e-014
lfoot -1.6987 16.833
ltoes -14.8433
1793
root 5.6301 15.6824 26.7372 539.316 -83.7736 -524.32
lowerback -20.9997 1.00015 0.224591
upperback -2.46519 1.01301 0.576614
thorax 9.05585 0.397904 0.774959
lowerneck -18.2647 15.213 16.2321
upperneck 22.382 22.3064 -19.589
head 15.2537 8.84286 -5.87139
rclavicle -1.51578e-015 -1.05604e-015
rhumerus -95.2607 43.0195 -122.477
rradius 116.838
rwrist -90.0584
rhand -37.8994 -84.5995
rfingers 7.12502
rthumb -10.9422 -245.706
lclavicle -1.51578e-015 -1.05604e-015
lhumerus -98.7099 -44.0487 126.599
lradius 116.118
lwrist 108.373
lhand -58.561 74.3791
lfingers 7.12502
lthumb -30.7809 -461.822
rfemur -20.4372 23.2735 12.7213
rtibia 24.4475
rfoot -14.3779 -24.7695
rtoes -12.203
lfemur -9.87292 -12.5977 -12.5129
ltibia 3.97569e-015
lfoot -1.69384 16.8339
ltoes -14.8326
1794
root 5.63159 15.6829 26.7373 539.345 -83.77 -524.334
lowerback -20.996 0.980626 0.21622
upperback -2.45057 0.988601 0.590604
thorax 9.06986 0.385957 0.788292
lowerneck -18.3891 15.1283 16.1022
upperneck 22.3477 22.1944 -19.5954
head 15.2222 8.7769 -5.87788
rclavicle -7.97456e-015 1.4488e-014
rhumerus -95.2884 43.0906 -122.516
rradius 116.851
rwrist -90.062
rhand -37.8985 -84.6087
rfingers 7.12502
rthumb -10.9413 -245.696
lclavicle -7.97456e-015 1.4488e-014
lhumerus -98.6863 -44.0286 126.606
lradius 116.119
lwrist 108.348
lhand -58.5732 74.4972
lfingers 7.12502
lthumb -30.7925 -461.938
rfemur -20.4595 23.2709 12.71
rtibia 24.4404
rfoot -14.3632 -24.7648
rtoes -12.2167
lfemur -9.89229 -12.5914 -12.5094
ltibia -2.54444e-014
lfoot -1.68701 16.8332
ltoes -14.8298
1795
root 5.63316 15.6834 26.7374 539.356 -83.7657 -524.331
lowerback -20.9892 0.960368 0.21426
upperback -2.43699 0.962077 0.601464
thorax 9.08122 0.373297 0.793876
lowerneck -18.4949 15.0448 15.9923
upperneck 22.2984 22.0838 -19.6204
head 15.1869 8.7131 -5.89493
rclavicle -1.08642e-015 7.10927e-015
rhumerus -95.3173 43.1608 -122.565
rradius 116.862
rwrist -90.0678
rhand -37.8938 -84.5998
rfingers 7.12502
rthumb -10.9369 -245.705
lclavicle -1.08642e-015 7.10927e-015
lhumerus -98.6709 -44.0028 126.608
lradius 116.121
lwrist 108.322
lhand -58.5764 74.565
lfingers 7.12502
lthumb -30.7956 -462.005
rfemur -20.4798 23.2656 12.7025
rtibia 24.4323
rfoot -14.3431 -24.7596
rtoes -12.2468
lfemur -9.91107 -12.5846 -12.504
ltibia 1.82882e-014
lfoot -1.67867 16.8326
ltoes -14.8343
1796
root 5.6348 15.6839 26.7375 539.359 -83.7615 -524.322
lowerback -20.9802 0.942835 0.21851
upperback -2.42445 0.938285 0.606683
thorax 9.09046 0.362281 0.790473
lowerneck -18.5902 14.9599 15.8977
upperneck 22.2403 21.9694 -19.6553
head 15.1488 8.6491 -5.91957
rclavicle -4.84851e-015 -4.26921e-015
rhumerus -95.3413 43.2217 -122.616
rradius 116.873
rwrist -90.0735
rhand -37.887 -84.5802
rfingers 7.12502
rthumb -10.9303 -245.724
lclavicle -4.84851e-015 -4.26921e-015
lhumerus -98.6683 -43.9807 126.613
lradius 116.124
lwrist 108.293
lhand -58.5797 74.6333
lfingers 7.12502
lthumb -30.7987 -462.073
rfemur -20.4999 23.2655 12.6948
rtibia 24.4233
rfoot -14.3258 -24.7575
rtoes -12.2426
lfemur -9.93023 -12.5777 -12.4975
ltibia 2.22639e-014
lfoot -1.6688 16.8317
ltoes -14.8447
1797
root 5.63647 15.6845 26.7376 539.356 -83.7567 -524.306
lowerback -20.9704 0.927599 0.225864
upperback -2.41238 0.917072 0.609194
thorax 9.09876 0.352663 0.783049
lowerneck -18.6822 14.8745 15.804
upperneck 22.1816 21.8533 -19.6864
head 15.1089 8.58514 -5.94322
rclavicle -2.03885e-014 -8.67509e-015
rhumerus -95.3627 43.276 -122.666
rradius 116.884
rwrist -90.0783
rhand -37.8769 -84.5534
rfingers 7.12502
rthumb -10.9205 -245.751
lclavicle -2.03885e-014 -8.67509e-015
lhumerus -98.6765 -43.9636 126.621
lradius 116.13
lwrist 108.264
lhand -58.5809 74.692
lfingers 7.12502
lthumb -30.7999 -462.131
rfemur -20.5188 23.267 12.6879
rtibia 24.4133
rfoot -14.308 -24.7557
rtoes -12.2398
lfemur -9.94868 -12.5701 -12.4901
ltibia 6.36111e-015
lfoot -1.66216 16.8315
ltoes -14.8257
1798
root 5.63814 15.6852 26.7378 539.359 -83.7523 -524.297
lowerback -20.9605 0.916844 0.236178
upperback -2.4009 0.901513 0.60721
thorax 9.10648 0.345935 0.770616
lowerneck -18.7802 14.7874 15.7012
upperneck 22.1309 21.733 -19.7
head 15.0683 8.51992 -5.95905
rclavicle -4.88262e-015 8.26509e-015
rhumerus -95.3778 43.3163 -122.71
rradius 116.895
rwrist -90.0785
rhand -37.8622 -84.5187
rfingers 7.12502
rthumb -10.9063 -245.785
lclavicle -4.88262e-015 8.26509e-015
lhumerus -98.7015 -43.9615 126.636
lradius 116.142
lwrist 108.241
lhand -58.5843 74.7587
lfingers 7.12502
lthumb -30.8031 -462.198
rfemur -20.5383 23.2725 12.6795
rtibia 24.4036
rfoot -14.2906 -24.7578
rtoes -12.2459
lfemur -9.96759 -12.5628 -12.483
ltibia 2.22639e-014
lfoot -1.65943 16.831
ltoes -14.7798
